<svg class="svg-icon" style="width: 1em; height: 1em;vertical-align: middle;fill: currentColor;overflow: hidden;" viewBox="0 0 1024 1024" version="1.1" xmlns="http://www.w3.org/2000/svg"><path d="M921.6 17.066667H529.066667v34.133333c0 10.24-6.826667 17.066667-17.066667 17.066667s-17.066667-6.826667-17.066667-17.066667v-34.133333H102.4C54.613333 17.066667 17.066667 54.613333 17.066667 102.4v819.2c0 47.786667 37.546667 85.333333 85.333333 85.333333h819.2c47.786667 0 85.333333-37.546667 85.333333-85.333333V102.4c0-47.786667-37.546667-85.333333-85.333333-85.333333zM153.6 750.933333c0 10.24-6.826667 17.066667-17.066667 17.066667s-17.066667-6.826667-17.066666-17.066667v-170.666666c0-10.24 6.826667-17.066667 17.066666-17.066667s17.066667 6.826667 17.066667 17.066667v170.666666z m204.8-494.933333c0 37.546667-30.72 68.266667-68.266667 68.266667s-68.266667-30.72-68.266666-68.266667c0-10.24 6.826667-17.066667 17.066666-17.066667s17.066667 6.826667 17.066667 17.066667c0 20.48 13.653333 34.133333 34.133333 34.133333s34.133333-13.653333 34.133334-34.133333-13.653333-34.133333-34.133334-34.133333H273.066667c-10.24 0-17.066667-6.826667-17.066667-17.066667s6.826667-17.066667 17.066667-17.066667h17.066666c20.48 0 34.133333-13.653333 34.133334-34.133333s-13.653333-34.133333-34.133334-34.133333-34.133333 13.653333-34.133333 34.133333c0 10.24-6.826667 17.066667-17.066667 17.066667s-17.066667-6.826667-17.066666-17.066667c0-37.546667 30.72-68.266667 68.266666-68.266667s68.266667 30.72 68.266667 68.266667c0 20.48-10.24 37.546667-23.893333 51.2 13.653333 13.653333 23.893333 30.72 23.893333 51.2z m170.666667 716.8c0 10.24-6.826667 17.066667-17.066667 17.066667s-17.066667-6.826667-17.066667-17.066667v-34.133333c0-10.24 6.826667-17.066667 17.066667-17.066667s17.066667 6.826667 17.066667 17.066667v34.133333z m0-102.4c0 10.24-6.826667 17.066667-17.066667 17.066667s-17.066667-6.826667-17.066667-17.066667v-34.133333c0-10.24 6.826667-17.066667 17.066667-17.066667s17.066667 6.826667 17.066667 17.066667v34.133333z m0-102.4c0 10.24-6.826667 17.066667-17.066667 17.066667s-17.066667-6.826667-17.066667-17.066667v-34.133333c0-10.24 6.826667-17.066667 17.066667-17.066667s17.066667 6.826667 17.066667 17.066667v34.133333z m0-102.4c0 10.24-6.826667 17.066667-17.066667 17.066667s-17.066667-6.826667-17.066667-17.066667v-34.133333c0-10.24 6.826667-17.066667 17.066667-17.066667s17.066667 6.826667 17.066667 17.066667v34.133333z m0-102.4c0 10.24-6.826667 17.066667-17.066667 17.066667s-17.066667-6.826667-17.066667-17.066667v-34.133333c0-10.24 6.826667-17.066667 17.066667-17.066667s17.066667 6.826667 17.066667 17.066667v34.133333z m0-102.4c0 10.24-6.826667 17.066667-17.066667 17.066667s-17.066667-6.826667-17.066667-17.066667v-34.133333c0-10.24 6.826667-17.066667 17.066667-17.066667s17.066667 6.826667 17.066667 17.066667v34.133333z m0-102.4c0 10.24-6.826667 17.066667-17.066667 17.066667s-17.066667-6.826667-17.066667-17.066667v-34.133333c0-10.24 6.826667-17.066667 17.066667-17.066667s17.066667 6.826667 17.066667 17.066667v34.133333z m0-102.4c0 10.24-6.826667 17.066667-17.066667 17.066667s-17.066667-6.826667-17.066667-17.066667v-34.133333c0-10.24 6.826667-17.066667 17.066667-17.066667s17.066667 6.826667 17.066667 17.066667v34.133333z m0-102.4c0 10.24-6.826667 17.066667-17.066667 17.066667s-17.066667-6.826667-17.066667-17.066667v-34.133333c0-10.24 6.826667-17.066667 17.066667-17.066667s17.066667 6.826667 17.066667 17.066667v34.133333z m153.6 443.733333c-27.306667 0-51.2-23.893333-51.2-51.2s23.893333-51.2 51.2-51.2 51.2 23.893333 51.2 51.2-23.893333 51.2-51.2 51.2z m68.266666-273.066666h-68.266666c-10.24 0-17.066667-6.826667-17.066667-17.066667s6.826667-17.066667 17.066667-17.066667h17.066666v-136.533333l-20.48 27.306667c-6.826667 6.826667-17.066667 10.24-23.893333 3.413333s-10.24-17.066667-3.413333-23.893333l51.2-68.266667c3.413333-6.826667 13.653333-6.826667 20.48-6.826667 6.826667 3.413333 10.24 10.24 10.24 17.066667v187.733333h17.066666c10.24 0 17.066667 6.826667 17.066667 17.066667s-6.826667 17.066667-17.066667 17.066667z m153.6 221.866666c0 10.24-6.826667 17.066667-17.066666 17.066667s-17.066667-6.826667-17.066667-17.066667v-170.666666c0-10.24 6.826667-17.066667 17.066667-17.066667s17.066667 6.826667 17.066666 17.066667v170.666666z" fill="" /></svg>